# xmcd CD database file generated by Grip 2.94
# 
# Track frame offsets:
#       150
#       31579
#       62660
#       105938
#       138231
#       187890
#       216951
#       270372
#       302735
# 
# Disc length: 4444 seconds
# 
# Revision: 3
# Processed by: cddbd v1.4b41PL1 Copyright (c) Steve Scherf et al.
# Submitted via: Grip 2.94
# 
DISCID=6c115a09
DTITLE=TOOL - SkEEv77's "Pushit TOOL December 12, 1996"
DYEAR=1900
DGENRE=
TTITLE0=Third Fucking Eye
TTITLE1=Forty Six and 2
TTITLE2=Eulogy
TTITLE3=PRISON SEX
TTITLE4=Pushit
TTITLE5=H
TTITLE6=Sober
TTITLE7=Opiate
TTITLE8=AEnema
EXTD=
EXTT0=
EXTT1=
EXTT2=
EXTT3=
EXTT4=
EXTT5=
EXTT6=
EXTT7=
EXTT8=
PLAYORDER=
